<svg width="850" height="199" xmlns="http://www.w3.org/2000/svg">
 <g>
  <title>background</title>
  <rect x="-1" y="-1" width="852" height="201" id="canvas_background" fill="none"/>
 </g>

 <g>
  <title>Layer 1</title>
  <g stroke="null" id="svgg">
   <path stroke="null" id="path0" d="m208.97926,15.057305c-60.03319,21.127095 -68.04146,122.998077 -12.31531,156.689294c44.97729,27.196179 92.17013,-7.714685 92.29417,-68.274416c0.03174,-15.615043 2.91368,-14.318954 -31.83692,-14.318954l-30.45508,0l0,12.378448l0,12.378448l20.77073,0c23.5344,0 22.40066,-0.731782 18.91291,12.185498c-11.121,41.194744 -64.98066,39.145016 -81.45878,-3.098252c-21.80639,-55.899616 33.51877,-113.517647 70.89167,-73.830161l3.57429,3.797275l6.91204,-8.723174l6.91204,-8.723164l-3.35217,-3.753582c-15.07032,-16.882011 -40.50581,-23.868551 -60.84959,-16.70726m259.43511,0.061891c-49.97957,17.551912 -66.57885,94.582261 -30.18968,140.109465c7.60728,9.516837 11.07195,12.34204 26.39614,21.531213c8.9343,5.3555 33.35722,4.769347 45.7937,-1.099492c23.95846,-11.300802 36.66899,-34.586837 37.88351,-69.395764l0.60004,-17.111377l-31.30034,0l-31.29746,0l0,12.378448l0,12.378448l21.3477,0c11.74123,0 21.3477,0.374985 21.3477,0.830081c0,4.394351 -7.83807,23.173176 -11.33448,27.148849c-32.29272,36.749424 -85.3129,-1.405321 -77.5008,-55.768548c6.312,-43.921648 51.17678,-65.755042 75.29391,-36.636565l3.1935,3.851881l6.94666,-8.668548l6.94665,-8.668558l-4.17145,-4.692885c-14.99243,-16.860174 -39.32304,-23.431674 -59.9553,-16.186646m-165.5889,81.482954l0,80.263307l27.40583,-0.73543c19.31101,-0.520614 29.15403,-1.376189 33.32837,-2.905293c60.94191,-22.295764 57.15702,-139.792713 -4.98498,-154.799766c-5.74368,-1.387112 -16.53869,-2.086125 -32.19463,-2.086125l-23.55459,0l0,80.263307m497.35232,-65.48563c-10.17189,13.437895 5.26192,33.006765 16.0252,20.318861c7.89,-9.305679 2.85598,-24.902524 -8.03423,-24.902524c-3.56276,0 -5.25327,0.968434 -7.99097,4.583663m-189.63679,-2.155302c-0.42407,0.531548 -0.77025,33.603841 -0.77025,73.491563c0,81.803334 -0.75294,75.534015 9.06123,75.534015c8.97757,0 8.24771,6.717129 8.24771,-75.883516l0,-74.114133l-7.88422,0c-4.33878,0 -8.23329,0.436887 -8.65447,0.972072m-261.27852,13.52527c24.9393,3.313058 39.44997,25.696198 37.52579,57.894728c-2.03668,34.124466 -15.6444,48.789283 -46.14276,49.728596l-17.04931,0.524262l0,-54.767354l0,-54.770982l7.78903,0.025484c4.28396,0.014561 12.32973,0.629846 17.87725,1.365266m317.59028,29.351481c-8.24771,1.67838 -13.0394,4.529057 -19.30235,11.486475c-7.42843,8.253508 -7.3563,8.592096 3.5916,16.885658l5.02248,3.80455l4.20896,-5.158903c10.21805,-12.527714 24.49793,-11.067787 32.1629,3.291211c2.09727,3.924695 3.66661,11.821416 2.33671,11.748601c-0.15866,-0.010913 -2.83867,-0.993908 -5.95428,-2.184424c-25.32587,-9.698884 -49.54685,6.509608 -49.41415,33.061371c0.1529,31.022576 31.49363,47.438578 50.78445,26.602741l4.87246,-5.264477l0,5.053319c0,5.705002 1.32125,6.822703 8.07751,6.822703c8.5535,0 8.07751,2.195357 8.07751,-37.375622c0,-42.89496 -0.46446,-45.945892 -8.59678,-56.544023c-8.23329,-10.725561 -21.32173,-15.18908 -35.86702,-12.229181m80.65103,-0.200235c-34.04092,6.531455 -32.65909,51.294097 1.89245,61.204138c24.68255,7.081201 29.53194,20.741187 9.8834,27.851509c-7.19475,2.603112 -17.80513,-5.082451 -23.1536,-16.769161c-1.01545,-2.220831 -12.33262,1.936869 -15.35591,5.64312c-1.00969,1.234208 3.8772,12.349326 7.47746,17.016726c19.43506,25.168298 60.38225,13.008294 60.38225,-17.934193c0,-17.358952 -8.38907,-27.258061 -28.27127,-33.363552c-16.87622,-5.184387 -22.17565,-10.001055 -19.06869,-17.326183c4.4282,-10.445227 18.78309,-10.001065 27.79816,0.86285l4.11376,4.955021l6.27161,-3.189275c8.441,-4.288767 8.65447,-4.663763 5.8937,-10.299598c-7.02166,-14.34079 -21.95928,-21.698688 -37.86332,-18.651404m52.66535,53.704259c0,57.148375 -0.78467,52.644802 9.18528,52.644802c8.4785,0 8.19002,1.940506 7.84961,-53.325616l-0.30291,-49.342677l-8.36599,-0.429601l-8.36599,-0.425974l0,50.879066m-112.50814,3.604316c7.79479,3.851881 8.09482,4.383418 6.43893,11.388167c-4.48302,18.953585 -26.02977,27.221663 -34.69578,13.31775c-9.41607,-15.10898 11.196,-33.130548 28.25685,-24.705917" fill="#7a797a" fill-rule="evenodd"/>
   <path stroke="null" id="path1" d="m29.03259,5.882693c50.87676,111.730045 57.45127,125.444637 58.92542,122.939824c11.39794,-19.339504 12.42782,-28.699789 4.97055,-45.294189c-10.11997,-22.521493 -20.84863,-46.025982 -22.02563,-48.257746c-0.63466,-1.201439 -2.72616,-5.788739 -4.64746,-10.194014c-1.92417,-4.405275 -4.79457,-10.630901 -6.38123,-13.834737c-1.58953,-3.203836 -3.47909,-7.299644 -4.2003,-9.101797c-1.2549,-3.131022 -1.94437,-3.276651 -15.57517,-3.276651l-14.26257,0l3.19639,7.01931" fill="#dd5044" fill-rule="evenodd"/>
   <path stroke="null" id="path2" d="m41.96237,167.989379c-8.52754,18.527621 -15.67613,34.255534 -15.88673,34.950909c-0.21347,0.691737 5.80138,1.259692 13.36251,1.259692l13.74907,0l3.51083,-6.917363c5.62829,-11.093281 14.56548,-31.52864 14.56836,-33.308946c0.00577,-2.020606 -12.24896,-29.675509 -13.14902,-29.675509c-0.36061,0 -7.63036,15.159958 -16.15502,33.691217" fill="#ffc20a" fill-rule="evenodd"/>
   <path stroke="null" id="path3" d="m42.03738,102.51832c0,1.26333 -0.79045,3.127374 -1.75975,4.139491c-0.96641,1.012127 -1.48568,2.188081 -1.15104,2.610397c0.33464,0.418688 -0.23944,1.947792 -1.27509,3.38951c-1.03566,1.445366 -4.32147,8.053273 -7.30438,14.683026c-16.50696,36.705741 -32.6966,71.936985 -33.61685,73.145699c-2.39729,3.156506 -0.34907,3.713537 13.70291,3.713537l14.75299,0l13.52117,-29.489835c7.43996,-16.219405 14.79915,-32.169399 16.35695,-35.442401l2.8329,-5.948939l-6.938,-15.167233c-7.5669,-16.536147 -9.12182,-19.20116 -9.12182,-15.633252" fill="#129e5a" fill-rule="evenodd"/>
   <path stroke="null" id="path4" d="m-2.71201,2.096342c1.73666,3.35674 10.28439,21.756941 21.01305,45.250507c3.21947,7.044794 6.3697,13.92576 7.00436,15.291026c0.63466,1.368914 2.93098,6.418585 5.10325,11.224339c2.17227,4.805744 8.44965,18.240001 13.94524,29.853897c5.49559,11.613896 13.79812,29.49712 18.44845,39.742102c10.35364,22.809103 9.04104,22.048199 14.86838,8.613942c2.67712,-6.17102 5.82158,-13.241298 6.98705,-15.709704l2.11746,-4.485364l-30.31662,-66.144598l-30.31661,-66.14096l-15.28669,-0.407765l-15.28668,-0.407755l1.71936,3.320333" fill="#508ef5" fill-rule="evenodd"/>
  </g>
 </g>
</svg>