<svg width="839" height="200" xmlns="http://www.w3.org/2000/svg">
 <style>.st0{fill:none;} .st1{fill:#FFC107;} .st2{fill:#0F9D58;} .st3{opacity:0.2;fill:#BF360C;enable-background:new ;} .st4{opacity:0.2;fill:#263238;enable-background:new ;} .st5{opacity:0.2;fill:#FFFFFF;enable-background:new ;} .st6{fill:url(#XMLID_126_);} .st7{fill:url(#XMLID_127_);} .st8{fill:#4285F4;} .st9{fill:#DB4437;} .st10{opacity:0.2;fill:#1A237E;enable-background:new ;} .st11{opacity:0.2;fill:#3E2723;enable-background:new ;} .st12{fill:url(#XMLID_128_);} .st13{fill:#FAFAFA;}</style>

 <g>
  <title>background</title>
  <rect x="-1" y="-1" width="841" height="202" id="canvas_background" fill="none"/>
 </g>
 <g>
  <title>Layer 1</title>
  <g id="XMLID_60_">
   <g id="XMLID_61_">
    <g id="XMLID_62_">
     <path id="XMLID_106_" class="st0" d="m122.5,90.6l-52.4,-90.6l-70.1,0l57.8,100l-57.8,100l70.1,0l52.4,-90.6c3.3,-5.8 3.3,-13 0,-18.8z"/>
     <path id="XMLID_105_" class="st1" d="m92.4,159.8l-16.6,-28.7l-39.9,68.9l34.2,0l22.8,-39.4l-0.5,-0.8z"/>
     <path id="XMLID_104_" class="st0" d="m122.5,90.6l-52.4,-90.6l-70.1,0l57.8,100l-57.8,100l70.1,0l52.4,-90.6c3.3,-5.8 3.3,-13 0,-18.8z"/>
     <path id="XMLID_103_" class="st2" d="m57.8,100l18,31.1l-39.9,68.9l-35.9,0l57.8,-100z"/>
     <path id="XMLID_102_" class="st0" d="m122.5,90.6l-52.4,-90.6l-70.1,0l57.8,100l-57.8,100l70.1,0l52.4,-90.6c3.3,-5.8 3.3,-13 0,-18.8z"/>
     <path id="XMLID_101_" class="st3" d="m70.1,198.4l-33.3,0l-0.9,1.6l34.2,0l22.8,-39.4l-0.5,-0.8l-22.3,38.6z"/>
     <path id="XMLID_100_" class="st0" d="m122.5,90.6l-52.4,-90.6l-70.1,0l57.8,100l-57.8,100l70.1,0l52.4,-90.6c3.3,-5.8 3.3,-13 0,-18.8z"/>
     <path id="XMLID_99_" class="st4" d="m0.9,198.4l-0.9,1.6l35.9,0l0.9,-1.6l-35.9,0z"/>
     <path id="XMLID_98_" class="st0" d="m122.5,90.6l-52.4,-90.6l-70.1,0l57.8,100l-57.8,100l70.1,0l52.4,-90.6c3.3,-5.8 3.3,-13 0,-18.8z"/>
     <path id="XMLID_96_" class="st5" d="m0,200l0.9,0l57.4,-99.2l-0.5,-0.8l-57.8,100z"/>
     <path id="XMLID_94_" class="st0" d="m122.5,90.6l-52.4,-90.6l-70.1,0l57.8,100l-57.8,100l70.1,0l52.4,-90.6c3.3,-5.8 3.3,-13 0,-18.8z"/>
     <path id="XMLID_92_" class="st6" d="m92.9,160.6l-17.1,-29.5l-4.2,7.2l21.3,22.3z"/>
     <path id="XMLID_90_" class="st0" d="m122.5,90.6l-52.4,-90.6l-70.1,0l57.8,100l-57.8,100l70.1,0l52.4,-90.6c3.3,-5.8 3.3,-13 0,-18.8z"/>
     <path id="XMLID_89_" class="st7" d="m71.6,138.3l4.2,-7.2l-18,-31.1l-8.5,14.8l22.3,23.5z"/>
     <path id="XMLID_88_" class="st0" d="m122.5,90.6l-52.4,-90.6l-70.1,0l57.8,100l-57.8,100l70.1,0l52.4,-90.6c3.3,-5.8 3.3,-13 0,-18.8z"/>
     <g id="XMLID_85_">
      <g id="XMLID_86_">
       <path id="XMLID_87_" class="st8" d="m35.9,0l-35.9,0l92.9,160.6l17.9,-31.1l-74.9,-129.5z"/>
      </g>
     </g>
     <path id="XMLID_84_" class="st0" d="m122.5,90.6l-52.4,-90.6l-70.1,0l57.8,100l-57.8,100l70.1,0l52.4,-90.6c3.3,-5.8 3.3,-13 0,-18.8z"/>
     <path id="XMLID_83_" class="st9" d="m122.5,109.4c3.4,-5.8 3.4,-13 0,-18.8l-52.4,-90.6l-34.2,0l74.9,129.5l11.7,-20.1z"/>
     <path id="XMLID_82_" class="st0" d="m122.5,90.6l-52.4,-90.6l-70.1,0l57.8,100l-57.8,100l70.1,0l52.4,-90.6c3.3,-5.8 3.3,-13 0,-18.8z"/>
     <path id="XMLID_71_" class="st10" d="m110.8,129.5l-0.4,-0.8l-17.5,30.3l-92,-159l-0.9,0l92.9,160.6l17.9,-31.1z"/>
     <path id="XMLID_69_" class="st0" d="m122.5,90.6l-52.4,-90.6l-70.1,0l57.8,100l-57.8,100l70.1,0l52.4,-90.6c3.3,-5.8 3.3,-13 0,-18.8z"/>
     <path id="XMLID_67_" class="st5" d="m70.1,1.6l52.4,90.6c1.5,2.7 2.3,5.6 2.5,8.6c0.1,-3.5 -0.7,-7 -2.5,-10.2l-52.4,-90.6l-70.1,0l0.9,1.6l69.2,0z"/>
     <path id="XMLID_66_" class="st0" d="m122.5,90.6l-52.4,-90.6l-70.1,0l57.8,100l-57.8,100l70.1,0l52.4,-90.6c3.3,-5.8 3.3,-13 0,-18.8z"/>
     <path id="XMLID_65_" class="st11" d="m110.8,129.5l11.6,-20.1c1.8,-3.1 2.6,-6.7 2.5,-10.2c-0.1,3 -0.9,5.9 -2.5,8.6l-12.1,20.9l0.5,0.8z"/>
     <path id="XMLID_64_" class="st0" d="m122.5,90.6l-52.4,-90.6l-70.1,0l57.8,100l-57.8,100l70.1,0l52.4,-90.6c3.3,-5.8 3.3,-13 0,-18.8z"/>
     <path id="XMLID_63_" class="st12" d="m122.5,90.6l-52.4,-90.6l-70.1,0l57.8,100l-57.8,100l70.1,0l52.4,-90.6c3.3,-5.8 3.3,-13 0,-18.8z"/>
    </g>
   </g>
  </g>
  <text stroke-opacity="0" stroke="#ad4343" transform="matrix(3.687840700149536,0,0,3.2143719043235137,-467.6842818260193,-33.07926862029609) " xml:space="preserve" text-anchor="start" font-family="'Times New Roman', Times, serif" font-size="32" id="svg_1" y="36.95912" x="165.051674" stroke-width="0" fill="#fafafa">GDG DevFest</text>
  <text stroke="#000" transform="matrix(51.06112588755195,0,0,2.5040767192840576,-21476.758206213755,-244.69448126852512) " xml:space="preserve" text-anchor="start" font-family="'Times New Roman', Times, serif" font-size="24" id="svg_2" y="154.5" x="424" stroke-opacity="null" stroke-width="0" fill="#ffffff"/>
  <text stroke="#000" transform="matrix(21.581497192382812,0,0,1.9827255010604858,-8822.065819978714,-152.03070603124797) " xml:space="preserve" text-anchor="start" font-family="'Times New Roman', Times, serif" font-size="24" id="svg_3" y="146.5" x="418" stroke-opacity="null" stroke-width="0" fill="#ffffff"/>
  <text transform="matrix(4.7493851376025304,0,0,4.293467924267412,-917.0156213917948,-463.0798406217726) " xml:space="preserve" text-anchor="start" font-family="'Times New Roman', Times, serif" font-size="24" id="svg_4" y="151.090152" x="223.894464" stroke-width="0" fill="#fafafa">Romania 2017</text>
 </g>
</svg>